<?xml version="1.0" encoding="UTF-8" standalone="no"?>
<!-- Uploaded to: SVG Repo, www.svgrepo.com, Generator: SVG Repo Mixer Tools -->

<svg
   version="1.1"
   id="Layer_1"
   viewBox="0 0 512 512"
   xml:space="preserve"
   sodipodi:docname="muted.svg"
   inkscape:version="1.3.2 (091e20ef0f, 2023-11-25)"
   xmlns:inkscape="http://www.inkscape.org/namespaces/inkscape"
   xmlns:sodipodi="http://sodipodi.sourceforge.net/DTD/sodipodi-0.dtd"
   xmlns="http://www.w3.org/2000/svg"
   xmlns:svg="http://www.w3.org/2000/svg"><defs
   id="defs27" /><sodipodi:namedview
   id="namedview27"
   pagecolor="#ffffff"
   bordercolor="#666666"
   borderopacity="1.0"
   inkscape:showpageshadow="2"
   inkscape:pageopacity="0.0"
   inkscape:pagecheckerboard="0"
   inkscape:deskcolor="#d1d1d1"
   inkscape:zoom="0.55518931"
   inkscape:cx="29.719592"
   inkscape:cy="399.86361"
   inkscape:window-width="1920"
   inkscape:window-height="1029"
   inkscape:window-x="0"
   inkscape:window-y="25"
   inkscape:window-maximized="1"
   inkscape:current-layer="Layer_1" />
<g
   id="g2"
   transform="translate(0.03656495)">
	<rect
   x="136"
   y="232"
   style="fill:#3f556b"
   width="24"
   height="16"
   id="rect1" />
	<rect
   x="352"
   y="232"
   style="fill:#3f556b"
   width="24"
   height="16"
   id="rect2" />
</g>
<path
   style="fill:#c9d5e3;stroke-width:1"
   d="M 256.03656,0 C 207.43657,0 168.03657,39.399999 168.03657,87.999997 V 263.99999 c 0,48.6 39.4,88 87.99999,88 48.6,0 88,-39.4 88,-88 V 87.999997 C 344.03656,39.399999 304.63656,0 256.03656,0 Z"
   id="path2" />
<path
   style="fill:#576d7e;stroke-width:1"
   d="m 392.03656,199.99999 c -8.83999,0 -15.99999,7.16 -15.99999,16.00001 v 47.99999 C 376.03657,330.272 322.30856,384 256.03656,384 c -66.27199,0 -120,-53.728 -120,-120.00001 V 216 c 0,-8.84001 -7.16,-16.00001 -15.99999,-16.00001 -8.84001,0 -16.00001,7.16 -16.00001,16.00001 v 47.99999 C 104.12457,338.616 158.35657,402.136 232.03657,413.92 V 464 h 47.99999 v -50.08 c 73.67999,-11.784 127.912,-75.304 128,-149.92001 V 216 c 0,-8.84001 -7.15999,-16.00001 -16,-16.00001 z"
   id="path3" />
<path
   style="fill:#f6b545;stroke-width:1"
   d="m 168.03657,224.00001 h 175.99999 c 4.416,0 8,3.58398 8,8 V 248 c 0,4.416 -3.584,8 -8,8 H 168.03657 c -4.416,0 -8,-3.584 -8,-8 v -15.99999 c 0,-4.41602 3.584,-8 8,-8 z"
   id="path4" />
<path
   style="fill:#35495c;stroke-width:1"
   d="m 168.03657,263.99999 c 0,48.6 39.4,88 87.99999,88 48.6,0 88,-39.4 88,-88 V 256 H 168.03657 Z"
   id="path5" />
<path
   style="fill:#f19920;stroke-width:1"
   d="m 344.03656,256 h -16 v -31.99999 h 16 c 4.416,0 8,3.58398 8,8 V 248 c 0,4.416 -3.584,8 -8,8 z"
   id="path6" />
<g
   id="g22"
   transform="translate(0.03656495)">
	<circle
   style="fill:#82a7c4"
   cx="240"
   cy="88"
   r="8"
   id="circle6" />
	<circle
   style="fill:#82a7c4"
   cx="208"
   cy="88"
   r="8"
   id="circle7" />
	<circle
   style="fill:#82a7c4"
   cx="272"
   cy="88"
   r="8"
   id="circle8" />
	<circle
   style="fill:#82a7c4"
   cx="256"
   cy="120"
   r="8"
   id="circle9" />
	<circle
   style="fill:#82a7c4"
   cx="224"
   cy="120"
   r="8"
   id="circle10" />
	<circle
   style="fill:#82a7c4"
   cx="288"
   cy="120"
   r="8"
   id="circle11" />
	<circle
   style="fill:#82a7c4"
   cx="256"
   cy="56"
   r="8"
   id="circle12" />
	<circle
   style="fill:#82a7c4"
   cx="224"
   cy="56"
   r="8"
   id="circle13" />
	<circle
   style="fill:#82a7c4"
   cx="288"
   cy="56"
   r="8"
   id="circle14" />
	<circle
   style="fill:#82a7c4"
   cx="256"
   cy="184"
   r="8"
   id="circle15" />
	<circle
   style="fill:#82a7c4"
   cx="224"
   cy="184"
   r="8"
   id="circle16" />
	<circle
   style="fill:#82a7c4"
   cx="288"
   cy="184"
   r="8"
   id="circle17" />
	<circle
   style="fill:#82a7c4"
   cx="304"
   cy="88"
   r="8"
   id="circle18" />
	<circle
   style="fill:#82a7c4"
   cx="240"
   cy="152"
   r="8"
   id="circle19" />
	<circle
   style="fill:#82a7c4"
   cx="208"
   cy="152"
   r="8"
   id="circle20" />
	<circle
   style="fill:#82a7c4"
   cx="272"
   cy="152"
   r="8"
   id="circle21" />
	<circle
   style="fill:#82a7c4"
   cx="304"
   cy="152"
   r="8"
   id="circle22" />
</g>
<path
   style="fill:#123247;stroke-width:1"
   d="m 168.03657,256 v 7.99999 c 0,2.72001 0,5.36 0.39999,8.00001 h 149.52 c 4.41601,-0.12 8.09601,3.36799 8.216,7.784 0.016,0.69599 -0.056,1.384 -0.21599,2.056 -8.16802,31.928 -36.96801,54.23199 -69.92001,54.16 -4.41599,0 -7.99999,3.584 -7.99999,8 0,4.41599 3.584,7.99999 7.99999,7.99999 45.48801,-0.0161 83.464,-34.70399 87.60001,-79.99999 v 0 c 0,-2.64001 0.39999,-5.28 0.39999,-8.00001 V 256 Z"
   id="path22" />
<path
   style="fill:#576d7e;stroke-width:1"
   d="M 321.39657,464 H 190.67656 c -4.24,0.0161 -8.296,1.712 -11.28,4.72001 L 164.75657,483.36 c -3.00801,2.98399 -4.704,7.03999 -4.72,11.27999 v 1.36 c 0,8.83999 7.16,16.00001 15.99999,16.00001 h 160.00001 c 8.83999,0 15.99999,-7.16002 15.99999,-16.00001 v -1.36 c -0.0161,-4.24 -1.712,-8.296 -4.72001,-11.27999 L 332.67656,468.72001 C 329.69257,465.712 325.63657,464.016 321.39657,464 Z"
   id="path23" />
<g
   id="g25"
   transform="translate(0.03656495)">
	<path
   style="fill:#3f556b"
   d="m 347.28,483.28 -8,-8 c 3.024,3.008 4.72,7.096 4.72,11.36 V 488 c 0,8.84 -7.16,16 -16,16 H 168 c -2.264,-0.008 -4.496,-0.504 -6.56,-1.44 2.576,5.736 8.272,9.424 14.56,9.44 h 160 c 8.84,0 16,-7.16 16,-16 v -1.36 c 0,-4.264 -1.696,-8.352 -4.72,-11.36 z"
   id="path24" />
	<path
   style="fill:#3f556b"
   d="m 256,416 c -8.04,-0.056 -16.064,-0.752 -24,-2.08 v 16 c 7.936,1.328 15.96,2.024 24,2.08 3.736,-0.68 7.32,1.8 8,5.536 0.152,0.816 0.152,1.648 0,2.464 v 24 h 16 v -50.08 c -7.936,1.328 -15.96,2.024 -24,2.08 z"
   id="path25" />
</g>
<path
   style="fill:#b0c4d9;stroke-width:1"
   d="m 328.03656,224.00001 h 16 V 96.000004 c 0,-4.416008 -3.584,-8.000007 -7.99999,-8.000007 v 0 c -4.41601,0 -8.00001,3.583999 -8.00001,8.000007 z"
   id="path26" />
<path
   style="fill:#d5e3ef;stroke-width:1"
   d="m 264.03656,7.999999 c 0,4.416 -3.584,8 -8,8 -39.76799,0 -72,32.232 -72,71.999998 0,4.416007 -3.58399,8.000007 -8,8.000007 -4.416,0 -7.99999,-3.584 -7.99999,-8.000007 C 168.03657,39.399999 207.43657,0 256.03656,0 c 4.416,0 8,3.5839991 8,7.999999 z"
   id="path27" />
<g
   id="g27"
   transform="matrix(4.5469124,0,0,4.5469124,-34.965835,-35.002399)"><path
     id="path3-6"
     style="opacity:0.410466;stroke-width:0.87567"
     d="m 64,20.216476 a 43.229224,43.229224 0 0 0 -27.671187,9.895077 l 3.130522,3.130522 a 41.423592,41.423592 0 0 1 26.379573,-9.347783 c 22.955342,0 41.598892,18.444637 41.929022,41.330005 a 43.229224,43.229224 0 0 0 0.002,-0.09003 43.229224,43.229224 0 0 0 0.003,-0.107816 43.229224,43.229224 0 0 0 10e-4,-0.05856 43.229224,43.229224 0 0 0 0,-0.0041 43.229224,43.229224 0 0 0 0.009,-0.75855 43.229224,43.229224 0 0 0 0,-5.47e-4 43.229224,43.229224 0 0 0 0,-0.02873 43.229224,43.229224 0 0 0 0,-0.01231 43.229224,43.229224 0 0 0 0,-0.102344 43.229224,43.229224 0 0 0 0,-0.0027 43.229224,43.229224 0 0 0 0,-0.01751 43.229224,43.229224 0 0 0 0,-0.01177 43.229224,43.229224 0 0 0 0,-0.0088 43.229224,43.229224 0 0 0 0,-0.02052 C 107.78352,39.822836 88.177164,20.216476 64,20.216476 Z M 29.878132,36.655 a 43.229224,43.229224 0 0 0 -0.01204,0.01697 43.229224,43.229224 0 0 0 -3.332747,4.707003 43.229224,43.229224 0 0 0 -2.686119,5.132524 43.229224,43.229224 0 0 1 0,2.73e-4 A 43.229224,43.229224 0 0 0 20.611623,58.020813 43.229224,43.229224 0 0 0 20.216476,64 c 0,24.177164 19.60636,43.78352 43.783524,43.78352 a 43.229224,43.229224 0 0 0 0.422784,-0.0279 C 52.758006,107.35807 41.317832,102.13134 33.351533,92.38048 21.418827,77.78134 20.777404,57.147919 31.413292,41.885216 l 59.508923,55.270129 z" /><g
     id="g1"
     style="opacity:0.590817"
     transform="matrix(0.87567048,0,0,0.87567048,7.9570896,7.9570896)"><path
       id="path1"
       d="M 64,4 C 30.860033,4 4,30.860033 4,64 4,97.139967 30.860033,124 64,124 97.139967,124 124,97.139967 124,64 124,30.860033 97.139967,4 64,4 Z m 0,10 c 27.609972,0 50,22.390028 50,50 a 49.367,49.367 0 0 1 -0.007,0.964062 49.367,49.367 0 0 1 -0.008,0.33125 49.367,49.367 0 0 1 -0.0178,0.646251 49.367,49.367 0 0 1 -0.0159,0.370625 49.367,49.367 0 0 1 -0.0281,0.586874 49.367,49.367 0 0 1 -0.0263,0.424688 49.367,49.367 0 0 1 -0.0372,0.545937 49.367,49.367 0 0 1 -0.0331,0.409688 49.367,49.367 0 0 1 -0.0512,0.576875 49.367,49.367 0 0 1 -0.0384,0.384063 49.367,49.367 0 0 1 -0.0641,0.585312 49.367,49.367 0 0 1 -0.0459,0.387187 49.367,49.367 0 0 1 -0.075,0.575626 49.367,49.367 0 0 1 -0.0544,0.394687 49.367,49.367 0 0 1 -0.0847,0.562812 49.367,49.367 0 0 1 -0.0634,0.403438 49.367,49.367 0 0 1 -0.10188,0.592188 49.367,49.367 0 0 1 -0.0622,0.352812 49.367,49.367 0 0 1 -0.13188,0.683437 49.367,49.367 0 0 1 -0.0519,0.265625 49.367,49.367 0 0 1 -0.17499,0.817188 49.367,49.367 0 0 1 -0.03,0.139688 49.367,49.367 0 0 1 -0.22438,0.951875 49.367,49.367 0 0 1 -0.0531,0.209062 49.367,49.367 0 0 1 -0.18499,0.719063 49.367,49.367 0 0 1 -0.095,0.345937 49.367,49.367 0 0 1 -0.16749,0.600938 49.367,49.367 0 0 1 -0.10251,0.34625 49.367,49.367 0 0 1 -0.17437,0.579375 49.367,49.367 0 0 1 -0.11844,0.375 49.367,49.367 0 0 1 -0.17656,0.546562 49.367,49.367 0 0 1 -0.13375,0.396875 49.367,49.367 0 0 1 -0.17813,0.514688 49.367,49.367 0 0 1 -0.14343,0.40125 49.367,49.367 0 0 1 -0.19375,0.524687 49.367,49.367 0 0 1 -0.14469,0.381875 49.367,49.367 0 0 1 -0.20406,0.520312 49.367,49.367 0 0 1 -0.15625,0.390001 49.367,49.367 0 0 1 -0.22625,0.543125 49.367,49.367 0 0 1 -0.14281,0.337812 49.367,49.367 0 0 1 -0.235,0.534375 49.367,49.367 0 0 1 -0.16844,0.378438 49.367,49.367 0 0 1 -0.26313,0.565937 49.367,49.367 0 0 1 -0.13812,0.295625 49.367,49.367 0 0 1 -0.425,0.867188 49.367,49.367 0 0 1 -0.11281,0.22 49.367,49.367 0 0 1 -0.32938,0.638437 49.367,49.367 0 0 1 -0.17531,0.325937 49.367,49.367 0 0 1 -0.28813,0.5325 49.367,49.367 0 0 1 -0.18843,0.334688 49.367,49.367 0 0 1 -0.28813,0.5075 49.367,49.367 0 0 1 -0.21187,0.360937 49.367,49.367 0 0 1 -0.28188,0.473126 49.367,49.367 0 0 1 -0.22187,0.361875 49.367,49.367 0 0 1 -0.28844,0.462499 49.367,49.367 0 0 1 -0.23,0.36 49.367,49.367 0 0 1 -0.30438,0.466563 49.367,49.367 0 0 1 -0.22593,0.339688 49.367,49.367 0 0 1 -0.31438,0.46125 49.367,49.367 0 0 1 -0.24094,0.347812 49.367,49.367 0 0 1 -0.32562,0.457187 49.367,49.367 0 0 1 -0.23688,0.328438 49.367,49.367 0 0 1 -0.35406,0.475938 49.367,49.367 0 0 1 -0.22469,0.299687 49.367,49.367 0 0 1 -0.38656,0.49875 49.367,49.367 0 0 1 -0.21156,0.271563 A 49.367,49.367 0 0 1 102.7,95.6 l -7.1,7.1 A 49.367,49.367 0 0 1 64,114 C 36.390028,114 14,91.609972 14,64 A 49.367,49.367 0 0 1 14.45125,57.171875 49.367,49.367 0 0 1 25.3,32.4 l 7.1,-7.1 A 49.367,49.367 0 0 1 64,14 Z"
       style="opacity:1;fill:#cc3333;fill-opacity:1" /><path
       id="circle1"
       d="M 60.1,7 A 56.099998,56.099998 0 0 0 4,63.1 56.099998,56.099998 0 0 0 60.1,119.2 56.099998,56.099998 0 0 0 116.2,63.1 56.099998,56.099998 0 0 0 60.1,7 Z m 3.9,7 c 27.609972,0 50,22.390028 50,50 a 49.367,49.367 0 0 1 -11.3,31.6 l -7.1,7.1 A 49.367,49.367 0 0 1 64,114 C 36.390028,114 14,91.609972 14,64 A 49.367,49.367 0 0 1 25.3,32.4 l 7.1,-7.1 A 49.367,49.367 0 0 1 64,14 Z"
       style="opacity:1;fill:#f44336;fill-opacity:1" /><path
       d="M 103.9,96.8 25.3,18.9 18.2,26 96.8,103.9"
       fill="#f44336"
       id="path13"
       style="opacity:1" /><path
       d="m 45,10.9 c 1.7,-0.4 4.2,-1.6 5.9,-1.1 1.09,0.3 1.75,1.4 1.5,2.5 a 2.61,2.61 0 0 1 -2,1.5 c -3.9,0.97 -7.68,2.35 -11.3,4.1 A 52.018,52.018 0 0 0 21,33.7 c -1.9,2.7 -3.4,5.5 -5.8,7.8 -0.21,0.23 -0.49,0.37 -0.8,0.4 a 0.736,0.736 0 0 1 -0.5,-0.1 c -1.2,-0.5 -1.4,-1.1 -1.2,-2.3 0.18,-1.01 0.52,-1.99 1,-2.9 1.01,-1.76 2.11,-3.46 3.3,-5.1 1.89,-2.91 4.11,-5.59 6.6,-8 C 30.4,17.2 39.2,12.4 45,10.9 Z"
       fill="#ff8a80"
       id="path14"
       style="opacity:1" /><path
       fill="#cc3333"
       d="m 32.4,25.3 -2,2 71.1,71.1 1.8,-2.2 z"
       id="path15"
       style="opacity:1" /></g></g></svg>
