<?xml version="1.0" encoding="UTF-8" standalone="no"?>
<!-- Uploaded to: SVG Repo, www.svgrepo.com, Generator: SVG Repo Mixer Tools -->

<svg
   version="1.1"
   id="Layer_1"
   viewBox="0 0 512 512"
   xml:space="preserve"
   sodipodi:docname="unmuted.svg"
   inkscape:version="1.3.2 (091e20ef0f, 2023-11-25)"
   xmlns:inkscape="http://www.inkscape.org/namespaces/inkscape"
   xmlns:sodipodi="http://sodipodi.sourceforge.net/DTD/sodipodi-0.dtd"
   xmlns="http://www.w3.org/2000/svg"
   xmlns:svg="http://www.w3.org/2000/svg"><defs
   id="defs27" /><sodipodi:namedview
   id="namedview27"
   pagecolor="#ffffff"
   bordercolor="#666666"
   borderopacity="1.0"
   inkscape:showpageshadow="2"
   inkscape:pageopacity="0.0"
   inkscape:pagecheckerboard="0"
   inkscape:deskcolor="#d1d1d1"
   inkscape:zoom="0.55518931"
   inkscape:cx="29.719592"
   inkscape:cy="399.86361"
   inkscape:window-width="1920"
   inkscape:window-height="1029"
   inkscape:window-x="0"
   inkscape:window-y="25"
   inkscape:window-maximized="1"
   inkscape:current-layer="Layer_1" />
<g
   id="g2"
   transform="translate(0.03656495)">
	<rect
   x="136"
   y="232"
   style="fill:#3f556b"
   width="24"
   height="16"
   id="rect1" />
	<rect
   x="352"
   y="232"
   style="fill:#3f556b"
   width="24"
   height="16"
   id="rect2" />
</g>
<path
   style="fill:#c9d5e3;stroke-width:1"
   d="M 256.03656,0 C 207.43657,0 168.03657,39.399999 168.03657,87.999997 V 263.99999 c 0,48.6 39.4,88 87.99999,88 48.6,0 88,-39.4 88,-88 V 87.999997 C 344.03656,39.399999 304.63656,0 256.03656,0 Z"
   id="path2" />
<path
   style="fill:#576d7e;stroke-width:1"
   d="m 392.03656,199.99999 c -8.83999,0 -15.99999,7.16 -15.99999,16.00001 v 47.99999 C 376.03657,330.272 322.30856,384 256.03656,384 c -66.27199,0 -120,-53.728 -120,-120.00001 V 216 c 0,-8.84001 -7.16,-16.00001 -15.99999,-16.00001 -8.84001,0 -16.00001,7.16 -16.00001,16.00001 v 47.99999 C 104.12457,338.616 158.35657,402.136 232.03657,413.92 V 464 h 47.99999 v -50.08 c 73.67999,-11.784 127.912,-75.304 128,-149.92001 V 216 c 0,-8.84001 -7.15999,-16.00001 -16,-16.00001 z"
   id="path3" />
<path
   style="fill:#f6b545;stroke-width:1"
   d="m 168.03657,224.00001 h 175.99999 c 4.416,0 8,3.58398 8,8 V 248 c 0,4.416 -3.584,8 -8,8 H 168.03657 c -4.416,0 -8,-3.584 -8,-8 v -15.99999 c 0,-4.41602 3.584,-8 8,-8 z"
   id="path4" />
<path
   style="fill:#35495c;stroke-width:1"
   d="m 168.03657,263.99999 c 0,48.6 39.4,88 87.99999,88 48.6,0 88,-39.4 88,-88 V 256 H 168.03657 Z"
   id="path5" />
<path
   style="fill:#f19920;stroke-width:1"
   d="m 344.03656,256 h -16 v -31.99999 h 16 c 4.416,0 8,3.58398 8,8 V 248 c 0,4.416 -3.584,8 -8,8 z"
   id="path6" />
<g
   id="g22"
   transform="translate(0.03656495)">
	<circle
   style="fill:#82a7c4"
   cx="240"
   cy="88"
   r="8"
   id="circle6" />
	<circle
   style="fill:#82a7c4"
   cx="208"
   cy="88"
   r="8"
   id="circle7" />
	<circle
   style="fill:#82a7c4"
   cx="272"
   cy="88"
   r="8"
   id="circle8" />
	<circle
   style="fill:#82a7c4"
   cx="256"
   cy="120"
   r="8"
   id="circle9" />
	<circle
   style="fill:#82a7c4"
   cx="224"
   cy="120"
   r="8"
   id="circle10" />
	<circle
   style="fill:#82a7c4"
   cx="288"
   cy="120"
   r="8"
   id="circle11" />
	<circle
   style="fill:#82a7c4"
   cx="256"
   cy="56"
   r="8"
   id="circle12" />
	<circle
   style="fill:#82a7c4"
   cx="224"
   cy="56"
   r="8"
   id="circle13" />
	<circle
   style="fill:#82a7c4"
   cx="288"
   cy="56"
   r="8"
   id="circle14" />
	<circle
   style="fill:#82a7c4"
   cx="256"
   cy="184"
   r="8"
   id="circle15" />
	<circle
   style="fill:#82a7c4"
   cx="224"
   cy="184"
   r="8"
   id="circle16" />
	<circle
   style="fill:#82a7c4"
   cx="288"
   cy="184"
   r="8"
   id="circle17" />
	<circle
   style="fill:#82a7c4"
   cx="304"
   cy="88"
   r="8"
   id="circle18" />
	<circle
   style="fill:#82a7c4"
   cx="240"
   cy="152"
   r="8"
   id="circle19" />
	<circle
   style="fill:#82a7c4"
   cx="208"
   cy="152"
   r="8"
   id="circle20" />
	<circle
   style="fill:#82a7c4"
   cx="272"
   cy="152"
   r="8"
   id="circle21" />
	<circle
   style="fill:#82a7c4"
   cx="304"
   cy="152"
   r="8"
   id="circle22" />
</g>
<path
   style="fill:#123247;stroke-width:1"
   d="m 168.03657,256 v 7.99999 c 0,2.72001 0,5.36 0.39999,8.00001 h 149.52 c 4.41601,-0.12 8.09601,3.36799 8.216,7.784 0.016,0.69599 -0.056,1.384 -0.21599,2.056 -8.16802,31.928 -36.96801,54.23199 -69.92001,54.16 -4.41599,0 -7.99999,3.584 -7.99999,8 0,4.41599 3.584,7.99999 7.99999,7.99999 45.48801,-0.0161 83.464,-34.70399 87.60001,-79.99999 v 0 c 0,-2.64001 0.39999,-5.28 0.39999,-8.00001 V 256 Z"
   id="path22" />
<path
   style="fill:#576d7e;stroke-width:1"
   d="M 321.39657,464 H 190.67656 c -4.24,0.0161 -8.296,1.712 -11.28,4.72001 L 164.75657,483.36 c -3.00801,2.98399 -4.704,7.03999 -4.72,11.27999 v 1.36 c 0,8.83999 7.16,16.00001 15.99999,16.00001 h 160.00001 c 8.83999,0 15.99999,-7.16002 15.99999,-16.00001 v -1.36 c -0.0161,-4.24 -1.712,-8.296 -4.72001,-11.27999 L 332.67656,468.72001 C 329.69257,465.712 325.63657,464.016 321.39657,464 Z"
   id="path23" />
<g
   id="g25"
   transform="translate(0.03656495)">
	<path
   style="fill:#3f556b"
   d="m 347.28,483.28 -8,-8 c 3.024,3.008 4.72,7.096 4.72,11.36 V 488 c 0,8.84 -7.16,16 -16,16 H 168 c -2.264,-0.008 -4.496,-0.504 -6.56,-1.44 2.576,5.736 8.272,9.424 14.56,9.44 h 160 c 8.84,0 16,-7.16 16,-16 v -1.36 c 0,-4.264 -1.696,-8.352 -4.72,-11.36 z"
   id="path24" />
	<path
   style="fill:#3f556b"
   d="m 256,416 c -8.04,-0.056 -16.064,-0.752 -24,-2.08 v 16 c 7.936,1.328 15.96,2.024 24,2.08 3.736,-0.68 7.32,1.8 8,5.536 0.152,0.816 0.152,1.648 0,2.464 v 24 h 16 v -50.08 c -7.936,1.328 -15.96,2.024 -24,2.08 z"
   id="path25" />
</g>
<path
   style="fill:#b0c4d9;stroke-width:1"
   d="m 328.03656,224.00001 h 16 V 96.000004 c 0,-4.416008 -3.584,-8.000007 -7.99999,-8.000007 v 0 c -4.41601,0 -8.00001,3.583999 -8.00001,8.000007 z"
   id="path26" />
<path
   style="fill:#d5e3ef;stroke-width:1"
   d="m 264.03656,7.999999 c 0,4.416 -3.584,8 -8,8 -39.76799,0 -72,32.232 -72,71.999998 0,4.416007 -3.58399,8.000007 -8,8.000007 -4.416,0 -7.99999,-3.584 -7.99999,-8.000007 C 168.03657,39.399999 207.43657,0 256.03656,0 c 4.416,0 8,3.5839991 8,7.999999 z"
   id="path27" />
</svg>
